# xmcd
#
# Track frame offsets:
#	150
#	10048
#	28748
#	34119
#	45997
#	58776
#	69046
#	80870
#	94102
#	106390
#	118228
#	130728
#	139470
#	152148
#	163917
#	175480
#	185786
#	196141
#
# Disc length: 2772 seconds
#
# Revision: 1
# Processed by: cddbd v1.5.2PL0 Copyright (c) Steve Scherf et al.
# Submitted via: audiograbber 1.83.01
#
DISCID=fd0ad212
DTITLE=Verschieden Interpreten - Blue Moomn Of Kentucky
DYEAR=2007
DGENRE=Country
TTITLE0=Bill Monroe and His Bluegrass Boys - Blue Moon Of Kentucky
TTITLE1=Bob Wills and His Texas Playboys - A Little Bit Of Boogie
TTITLE2=Burl Ives - I´m Going Down The Road Feeling Bad
TTITLE3=Eddy Arnold - I´m Throwing Rice At The Girl I Love
TTITLE4=Ernest Tubb - Have You Ever Been Lonely
TTITLE5=Frankie Laine - I Believe
TTITLE6=Gene Autry - Don´t Live A Lie
TTITLE7=Hank Snow - I don´t Hurt Anymore
TTITLE8=Hank Williams and The Drifting Cowboys - Cold Cold Heart
TTITLE9=Jim Reeves - Mexican Joe
TTITLE10=Jimmy Wakely - I Love You So Much It Hurts Me
TTITLE11=Johnny and Jack - Oh Baby Mine
TTITLE12=Johnny Bond And His Red River Valley Boys - Tennesse Saturday Night
TTITLE13=Kay Starr and Tennesse Ernie Ford - I´ll Never Be Free
TTITLE14=Kitty Wells - Hey Joe
TTITLE15=Lefty Frizell - Give Me More More More
TTITLE16=Les Paul and Mary Ford - Mocking Bird Hill
TTITLE17=Marty Robbins - I´ll Go Alone
EXTD=
EXTT0=
EXTT1=
EXTT2=
EXTT3=
EXTT4=
EXTT5=
EXTT6=
EXTT7=
EXTT8=
EXTT9=
EXTT10=
EXTT11=
EXTT12=
EXTT13=
EXTT14=
EXTT15=
EXTT16=
EXTT17=
PLAYORDER=
